<mxfile host="65bd71144e">
    <diagram id="JDnmNyQViEnh356DJc-H" name="Page-1">
        <mxGraphModel dx="2020" dy="1139" grid="1" gridSize="10" guides="1" tooltips="1" connect="1" arrows="1" fold="1" page="1" pageScale="1" pageWidth="850" pageHeight="1100" background="none" math="0" shadow="0">
            <root>
                <mxCell id="0"/>
                <mxCell id="1" parent="0"/>
                <mxCell id="2" value="" style="rounded=1;whiteSpace=wrap;html=1;fillColor=#F5F5F5;" parent="1" vertex="1">
                    <mxGeometry x="25" y="40" width="800" height="2410" as="geometry"/>
                </mxCell>
                <mxCell id="31" value="" style="rounded=1;whiteSpace=wrap;html=1;arcSize=37;" parent="1" vertex="1">
                    <mxGeometry x="56" y="2006" width="98" height="46.5" as="geometry"/>
                </mxCell>
                <mxCell id="4" value="" style="rounded=1;whiteSpace=wrap;html=1;fillColor=#007FFF;" parent="1" vertex="1">
                    <mxGeometry x="25" y="40" width="800" height="200" as="geometry"/>
                </mxCell>
                <mxCell id="5" value="&lt;h1&gt;&lt;font style=&quot;font-size: 100px;&quot; face=&quot;Comic Sans MS&quot;&gt;&lt;span style=&quot;color: rgb(248, 250, 255); text-align: left;&quot;&gt;MotivX&lt;/span&gt;&lt;/font&gt;&lt;/h1&gt;" style="text;html=1;align=center;verticalAlign=middle;whiteSpace=wrap;rounded=0;" parent="1" vertex="1">
                    <mxGeometry x="40" y="50" width="770" height="175" as="geometry"/>
                </mxCell>
                <mxCell id="6" value="&lt;font face=&quot;Comic Sans MS&quot;&gt;image&lt;/font&gt;" style="rounded=1;whiteSpace=wrap;html=1;" parent="1" vertex="1">
                    <mxGeometry x="450" y="280" width="360" height="360" as="geometry"/>
                </mxCell>
                <mxCell id="7" value="&lt;h1 style=&quot;margin-top: 0px;&quot;&gt;&lt;font face=&quot;Comic Sans MS&quot;&gt;Heading&lt;/font&gt;&lt;/h1&gt;&lt;p&gt;&lt;font face=&quot;Comic Sans MS&quot;&gt;Lorem ipsum dolor sit amet, consectetur adipisicing elit, sed do eiusmod tempor incididunt ut labore et dolore magna aliqua.&lt;/font&gt;&lt;/p&gt;&lt;p&gt;&lt;span style=&quot;color: rgb(63, 63, 63);&quot;&gt;&lt;font face=&quot;Comic Sans MS&quot;&gt;Lorem ipsum dolor sit amet, consectetur adipisicing elit, sed do eiusmod tempor incididunt ut labore et dolore magna aliqua.&lt;/font&gt;&lt;/span&gt;&lt;/p&gt;&lt;p&gt;&lt;span style=&quot;color: rgb(63, 63, 63);&quot;&gt;&lt;font face=&quot;Comic Sans MS&quot;&gt;Lorem ipsum dolor sit amet, consectetur adipisicing elit, sed do eiusmod tempor incididunt ut labore et dolore magna aliqua.&lt;/font&gt;&lt;/span&gt;&lt;/p&gt;" style="text;html=1;whiteSpace=wrap;overflow=hidden;rounded=0;" parent="1" vertex="1">
                    <mxGeometry x="50" y="290" width="360" height="360" as="geometry"/>
                </mxCell>
                <mxCell id="8" value="&lt;font face=&quot;Comic Sans MS&quot;&gt;get bot&lt;/font&gt;" style="rounded=1;whiteSpace=wrap;html=1;" parent="1" vertex="1">
                    <mxGeometry x="55" y="520" width="350" height="80" as="geometry"/>
                </mxCell>
                <mxCell id="9" value="&lt;font face=&quot;Comic Sans MS&quot; style=&quot;font-size: 100px;&quot;&gt;Bot Futers&lt;/font&gt;" style="text;html=1;align=center;verticalAlign=middle;whiteSpace=wrap;rounded=0;" parent="1" vertex="1">
                    <mxGeometry x="157" y="668" width="537" height="180" as="geometry"/>
                </mxCell>
                <mxCell id="16" value="&lt;span style=&quot;color: rgb(63, 63, 63); font-family: &amp;quot;Comic Sans MS&amp;quot;;&quot;&gt;image&lt;/span&gt;" style="rounded=1;whiteSpace=wrap;html=1;rotation=-90;arcSize=26;" parent="1" vertex="1">
                    <mxGeometry x="-140" y="1243" width="590" height="270" as="geometry"/>
                </mxCell>
                <mxCell id="18" value="&lt;span style=&quot;color: rgb(63, 63, 63); font-family: &amp;quot;Comic Sans MS&amp;quot;;&quot;&gt;image&lt;/span&gt;" style="rounded=1;whiteSpace=wrap;html=1;rotation=-90;arcSize=26;" parent="1" vertex="1">
                    <mxGeometry x="130.5" y="1243" width="590" height="270" as="geometry"/>
                </mxCell>
                <mxCell id="19" value="&lt;span style=&quot;color: rgb(63, 63, 63); font-family: &amp;quot;Comic Sans MS&amp;quot;;&quot;&gt;image&lt;/span&gt;" style="rounded=1;whiteSpace=wrap;html=1;rotation=-90;arcSize=26;" parent="1" vertex="1">
                    <mxGeometry x="400" y="1243" width="590" height="270" as="geometry"/>
                </mxCell>
                <mxCell id="20" value="&lt;h1 style=&quot;margin-top: 0px;&quot;&gt;&lt;font style=&quot;font-size: 36px;&quot; face=&quot;Comic Sans MS&quot;&gt;Heading&lt;/font&gt;&lt;/h1&gt;&lt;p&gt;&lt;font size=&quot;3&quot; face=&quot;Comic Sans MS&quot;&gt;Lorem ipsum dolor sit amet, consectetur adipisicing elit, sed do eiusmod tempor incididunt ut labore et dolore magna aliqua.&lt;/font&gt;&lt;/p&gt;" style="text;html=1;whiteSpace=wrap;overflow=hidden;rounded=0;" parent="1" vertex="1">
                    <mxGeometry x="30" y="920" width="250" height="210" as="geometry"/>
                </mxCell>
                <mxCell id="21" value="&lt;h1 style=&quot;margin-top: 0px;&quot;&gt;&lt;font style=&quot;font-size: 36px;&quot; face=&quot;Comic Sans MS&quot;&gt;Heading&lt;/font&gt;&lt;/h1&gt;&lt;p&gt;&lt;font size=&quot;3&quot; face=&quot;Comic Sans MS&quot;&gt;Lorem ipsum dolor sit amet, consectetur adipisicing elit, sed do eiusmod tempor incididunt ut labore et dolore magna aliqua.&lt;/font&gt;&lt;/p&gt;" style="text;html=1;whiteSpace=wrap;overflow=hidden;rounded=0;" parent="1" vertex="1">
                    <mxGeometry x="290" y="920" width="250" height="210" as="geometry"/>
                </mxCell>
                <mxCell id="22" value="&lt;h1 style=&quot;margin-top: 0px;&quot;&gt;&lt;font style=&quot;font-size: 36px;&quot; face=&quot;Comic Sans MS&quot;&gt;Heading&lt;/font&gt;&lt;/h1&gt;&lt;p&gt;&lt;font size=&quot;3&quot; face=&quot;Comic Sans MS&quot;&gt;Lorem ipsum dolor sit amet, consectetur adipisicing elit, sed do eiusmod tempor incididunt ut labore et dolore magna aliqua.&lt;/font&gt;&lt;/p&gt;" style="text;html=1;whiteSpace=wrap;overflow=hidden;rounded=0;" parent="1" vertex="1">
                    <mxGeometry x="560" y="920" width="250" height="210" as="geometry"/>
                </mxCell>
                <mxCell id="23" value="&lt;font face=&quot;Comic Sans MS&quot; style=&quot;font-size: 100px;&quot;&gt;Support&lt;/font&gt;" style="text;html=1;align=center;verticalAlign=middle;whiteSpace=wrap;rounded=0;" parent="1" vertex="1">
                    <mxGeometry x="157" y="1691" width="537" height="180" as="geometry"/>
                </mxCell>
                <mxCell id="24" value="&lt;h1 style=&quot;margin-top: 0px;&quot;&gt;&lt;font face=&quot;Comic Sans MS&quot; style=&quot;font-size: 48px;&quot;&gt;Heading&lt;/font&gt;&lt;/h1&gt;&lt;p&gt;&lt;font face=&quot;Comic Sans MS&quot; size=&quot;3&quot;&gt;Lorem ipsum dolor sit amet, consectetur adipisicing elit, sed do eiusmod tempor incididunt ut labore et dolore magna aliqua.&lt;/font&gt;&lt;/p&gt;&lt;p&gt;&lt;font face=&quot;Comic Sans MS&quot; size=&quot;3&quot;&gt;&lt;br&gt;&lt;/font&gt;&lt;/p&gt;&lt;p&gt;&lt;font face=&quot;Comic Sans MS&quot; size=&quot;3&quot;&gt;&lt;br&gt;&lt;/font&gt;&lt;/p&gt;" style="text;html=1;whiteSpace=wrap;overflow=hidden;rounded=0;" parent="1" vertex="1">
                    <mxGeometry x="55" y="1850" width="365" height="237.25" as="geometry"/>
                </mxCell>
                <mxCell id="25" value="Youtube" style="fillColor=none;strokeColor=none;html=1;fontColor=#0057D8;align=center;verticalAlign=middle;fontStyle=0;fontSize=12" parent="1" vertex="1">
                    <mxGeometry x="62" y="2012.75" width="86" height="33" as="geometry"/>
                </mxCell>
                <mxCell id="35" value="" style="rounded=1;whiteSpace=wrap;html=1;arcSize=37;" parent="1" vertex="1">
                    <mxGeometry x="56" y="2063" width="98" height="46.5" as="geometry"/>
                </mxCell>
                <mxCell id="36" value="Instagramm" style="fillColor=none;strokeColor=none;html=1;fontColor=#0057D8;align=center;verticalAlign=middle;fontStyle=0;fontSize=12" parent="1" vertex="1">
                    <mxGeometry x="62" y="2069.75" width="86" height="33" as="geometry"/>
                </mxCell>
                <mxCell id="37" value="" style="rounded=1;whiteSpace=wrap;html=1;arcSize=37;" parent="1" vertex="1">
                    <mxGeometry x="56" y="2120" width="98" height="46.5" as="geometry"/>
                </mxCell>
                <mxCell id="38" value="X" style="fillColor=none;strokeColor=none;html=1;fontColor=#0057D8;align=center;verticalAlign=middle;fontStyle=0;fontSize=12" parent="1" vertex="1">
                    <mxGeometry x="62" y="2126.75" width="86" height="33" as="geometry"/>
                </mxCell>
                <mxCell id="39" value="" style="rounded=1;whiteSpace=wrap;html=1;arcSize=37;" parent="1" vertex="1">
                    <mxGeometry x="166" y="2006" width="98" height="46.5" as="geometry"/>
                </mxCell>
                <mxCell id="40" value="TikTok" style="fillColor=none;strokeColor=none;html=1;fontColor=#0057D8;align=center;verticalAlign=middle;fontStyle=0;fontSize=12" parent="1" vertex="1">
                    <mxGeometry x="172" y="2010" width="93.17" height="35.75" as="geometry"/>
                </mxCell>
                <mxCell id="41" value="" style="rounded=1;whiteSpace=wrap;html=1;arcSize=37;" parent="1" vertex="1">
                    <mxGeometry x="166" y="2063" width="98" height="46.5" as="geometry"/>
                </mxCell>
                <mxCell id="42" value="Reddit" style="fillColor=none;strokeColor=none;html=1;fontColor=#0057D8;align=center;verticalAlign=middle;fontStyle=0;fontSize=12" parent="1" vertex="1">
                    <mxGeometry x="172" y="2069.75" width="86" height="33" as="geometry"/>
                </mxCell>
                <mxCell id="43" value="" style="rounded=1;whiteSpace=wrap;html=1;arcSize=37;" parent="1" vertex="1">
                    <mxGeometry x="166" y="2120" width="98" height="46.5" as="geometry"/>
                </mxCell>
                <mxCell id="44" value="Donate" style="fillColor=none;strokeColor=none;html=1;fontColor=#0057D8;align=center;verticalAlign=middle;fontStyle=0;fontSize=12" parent="1" vertex="1">
                    <mxGeometry x="172" y="2126.75" width="86" height="33" as="geometry"/>
                </mxCell>
                <mxCell id="45" value="&lt;font face=&quot;Comic Sans MS&quot;&gt;image&lt;/font&gt;" style="rounded=1;whiteSpace=wrap;html=1;" parent="1" vertex="1">
                    <mxGeometry x="475" y="1874.63" width="310" height="306.5" as="geometry"/>
                </mxCell>
            </root>
        </mxGraphModel>
    </diagram>
</mxfile>